<svg xmlns="http://www.w3.org/2000/svg" viewBox="0 0 246.8 199.68">
  <g fill="#111120">
    <path d="M13,54c12.48,35.12,39.44,51.6,51.76,52.56-9-28.24,6-62.08,47-64.72,58.88-3.84,80,53.28,85.6,80.16a101.15,101.15,0,0,0,2.48-22.16A99.86,99.86,0,0,0,12,52.48,4.13,4.13,0,0,1,13,54Z"/>
    <path d="M160.4,123.52C143.2,70.64,108.08,63,92,66.88,81,69.52,63.44,83.12,75,111.6c3.52,8.56,8.24,18.16,3.76,21.12-4.88,3.2-29.92-9.68-42.24-21.84C25.44,100,14.4,81.36,9.2,63.76a31.72,31.72,0,0,1-.88-3.84A99.84,99.84,0,0,0,187.2,148.16c-8.88,1-20.72-5.92-26.8-24.64Z"/>
    <circle cx="223.2" cy="23.68" r="23.6"/>
  </g>
</svg>
