<svg width="802" height="200" viewBox="0 0 802 200" fill="none" xmlns="http://www.w3.org/2000/svg">
<g clip-path="url(#clip0_36_944)">
<path d="M13.0001 54.0004C25.4801 89.1204 52.4401 105.6 64.7601 106.56C55.7601 78.3204 70.7601 44.4804 111.76 41.8404C170.64 38.0004 191.76 95.1204 197.36 122C199.001 114.728 199.833 107.296 199.84 99.8404C199.867 77.5837 192.458 55.9558 178.789 38.391C165.12 20.8261 145.975 8.33101 124.394 2.88971C102.812 -2.55158 80.0319 -0.627196 59.6691 8.35731C39.3064 17.3418 22.5287 32.8715 12.0001 52.4804C12.4423 52.9064 12.7839 53.4257 13.0001 54.0004Z" fill="#111120"/>
<path d="M160.4 123.52C143.2 70.6399 108.08 62.9999 92.0001 66.8799C81.0001 69.5199 63.4401 83.1199 75.0001 111.6C78.5201 120.16 83.2401 129.76 78.7601 132.72C73.8801 135.92 48.8401 123.04 36.5201 110.88C25.4401 99.9999 14.4001 81.3599 9.20014 63.7599C8.82752 62.4994 8.53362 61.2169 8.32014 59.9199C-1.94296 83.4472 -2.75033 110.023 6.06567 134.13C14.8817 158.237 32.6437 178.022 55.6636 189.378C78.6835 200.734 105.193 202.787 129.686 195.111C154.18 187.436 174.777 170.622 187.2 148.16C178.32 149.16 166.48 142.24 160.4 123.52Z" fill="#111120"/>
<path d="M223.202 47.2801C236.235 47.2801 246.802 36.714 246.802 23.6801C246.802 10.6462 236.235 0.0800781 223.202 0.0800781C210.168 0.0800781 199.602 10.6462 199.602 23.6801C199.602 36.714 210.168 47.2801 223.202 47.2801Z" fill="#111120"/>
<path d="M737.652 89L756.902 25.9992H774.665L793.915 89H781.665L764.514 33.4368H766.789L749.902 89H737.652ZM749.202 75.8748V64.7622H782.452V75.8748H749.202Z" fill="#111120"/>
<path d="M703.35 89L684.1 25.9992H696.35L712.101 77.7999L728.113 25.9992H740.363L721.113 89H703.35Z" fill="#111120"/>
<path d="M650.711 90.3125C645.636 90.3125 641.173 89.2917 637.323 87.25C633.473 85.1791 630.469 82.277 628.311 78.5436C626.152 74.8102 625.073 70.4206 625.073 65.3747V26.0867L637.148 25.9992V65.2872C637.148 67.358 637.498 69.2393 638.198 70.931C638.898 72.6227 639.861 74.0811 641.086 75.3061C642.34 76.5311 643.784 77.479 645.417 78.1499C647.08 78.7915 648.844 79.1124 650.711 79.1124C652.636 79.1124 654.415 78.777 656.049 78.1061C657.711 77.4353 659.155 76.4873 660.38 75.2623C661.605 74.0373 662.553 72.579 663.224 70.8873C663.924 69.1956 664.274 67.3289 664.274 65.2872V25.9992H676.349V65.3747C676.349 70.4206 675.27 74.8102 673.111 78.5436C670.953 82.277 667.949 85.1791 664.099 87.25C660.249 89.2917 655.786 90.3125 650.711 90.3125Z" fill="#111120"/>
<path d="M577.384 89V25.9992H589.284V77.8874H616.409V89H577.384Z" fill="#111120"/>
<path d="M535.568 89V63.3622L514.043 25.9992H527.956L541.606 49.712L555.256 25.9992H569.169L547.644 63.3622V89H535.568Z" fill="#111120"/>
<path d="M460.051 89L479.301 25.9992H497.064L516.314 89H504.064L486.914 33.4368H489.189L472.301 89H460.051ZM471.601 75.8748V64.7622H504.851V75.8748H471.601Z" fill="#111120"/>
<path d="M404.582 89V25.9992H431.182C431.795 25.9992 432.611 26.0283 433.632 26.0867C434.682 26.1158 435.616 26.2033 436.432 26.3492C440.195 26.9325 443.272 28.1721 445.664 30.068C448.085 31.9638 449.864 34.3555 451.001 37.2431C452.139 40.1014 452.708 43.2952 452.708 46.8244C452.708 52.1037 451.395 56.6246 448.77 60.3871C446.145 64.1205 442.032 66.4247 436.432 67.2997L431.182 67.6497H416.482V89H404.582ZM440.107 89L427.682 63.3622L439.932 60.9996L453.583 89H440.107ZM416.482 56.5371H430.657C431.27 56.5371 431.941 56.5079 432.67 56.4496C433.399 56.3912 434.07 56.2746 434.682 56.0996C436.286 55.6621 437.526 54.9329 438.401 53.912C439.276 52.862 439.874 51.7099 440.195 50.4557C440.545 49.1724 440.72 47.962 440.72 46.8244C440.72 45.6869 440.545 44.4911 440.195 43.2369C439.874 41.9536 439.276 40.8015 438.401 39.7806C437.526 38.7306 436.286 37.9868 434.682 37.5493C434.07 37.3743 433.399 37.2577 432.67 37.1993C431.941 37.141 431.27 37.1118 430.657 37.1118H416.482V56.5371Z" fill="#111120"/>
<path d="M364.75 90.3125C360.784 90.3125 357.007 89.6125 353.419 88.2125C349.831 86.7833 346.652 84.6833 343.881 81.9124C341.14 79.1415 338.967 75.7144 337.363 71.631C335.788 67.5476 335 62.8371 335 57.4996C335 50.5287 336.327 44.6077 338.981 39.7368C341.665 34.8368 345.252 31.1034 349.744 28.5367C354.265 25.97 359.267 24.6866 364.75 24.6866C372.859 24.6866 379.232 26.5679 383.869 30.3305C388.507 34.093 391.613 39.416 393.188 46.2994L381.026 48.0494C379.888 44.3744 378.021 41.4431 375.426 39.2556C372.859 37.0389 369.563 35.916 365.538 35.8868C361.542 35.8285 358.217 36.6889 355.563 38.4681C352.909 40.2473 350.911 42.7702 349.569 46.0369C348.256 49.3036 347.6 53.1245 347.6 57.4996C347.6 61.8746 348.256 65.6663 349.569 68.8747C350.911 72.0831 352.909 74.5769 355.563 76.3561C358.217 78.1353 361.542 79.054 365.538 79.1124C368.25 79.1707 370.7 78.704 372.888 77.7123C375.105 76.7207 376.971 75.1602 378.488 73.031C380.005 70.9018 381.084 68.1747 381.726 64.8497H371.75V55.6621H394.413C394.472 56.0412 394.515 56.7121 394.545 57.6746C394.574 58.6371 394.588 59.1913 394.588 59.3371C394.588 65.3747 393.363 70.7268 390.913 75.3936C388.463 80.0603 385.007 83.7207 380.544 86.375C376.082 89 370.817 90.3125 364.75 90.3125Z" fill="#111120"/>
<path d="M793.887 131.536V180.746H788.121L761.305 142.109H760.824V180.746H754.865V131.536H760.632L787.544 170.27H788.024V131.536H793.887Z" fill="#111120"/>
<path d="M733.929 146.914C733.401 145.296 732.704 143.847 731.839 142.565C730.99 141.268 729.973 140.162 728.787 139.249C727.618 138.336 726.288 137.639 724.799 137.159C723.309 136.678 721.675 136.438 719.897 136.438C716.982 136.438 714.33 137.191 711.944 138.697C709.557 140.202 707.659 142.421 706.249 145.352C704.839 148.284 704.134 151.88 704.134 156.141C704.134 160.402 704.847 163.998 706.273 166.93C707.699 169.861 709.629 172.08 712.064 173.586C714.499 175.091 717.238 175.844 720.281 175.844C723.101 175.844 725.584 175.244 727.73 174.042C729.893 172.825 731.575 171.111 732.776 168.9C733.994 166.674 734.602 164.054 734.602 161.043L736.428 161.427H721.627V156.141H740.369V161.427C740.369 165.48 739.504 169.004 737.774 172C736.06 174.995 733.689 177.318 730.662 178.968C727.65 180.602 724.19 181.419 720.281 181.419C715.924 181.419 712.096 180.394 708.796 178.343C705.512 176.293 702.949 173.377 701.107 169.597C699.281 165.817 698.368 161.331 698.368 156.141C698.368 152.249 698.888 148.748 699.929 145.641C700.987 142.517 702.476 139.858 704.399 137.663C706.321 135.469 708.596 133.787 711.223 132.617C713.85 131.448 716.741 130.863 719.897 130.863C722.492 130.863 724.911 131.256 727.153 132.041C729.412 132.81 731.423 133.907 733.185 135.333C734.963 136.742 736.444 138.432 737.63 140.403C738.815 142.357 739.632 144.527 740.081 146.914H733.929Z" fill="#111120"/>
<path d="M684.052 131.536V180.746H678.093V131.536H684.052Z" fill="#111120"/>
<path d="M657.565 143.839C657.277 141.404 656.107 139.514 654.057 138.168C652.007 136.822 649.492 136.15 646.512 136.15C644.334 136.15 642.427 136.502 640.793 137.207C639.175 137.912 637.91 138.881 636.997 140.114C636.1 141.348 635.651 142.749 635.651 144.319C635.651 145.633 635.964 146.762 636.588 147.707C637.229 148.636 638.046 149.413 639.039 150.038C640.032 150.647 641.074 151.151 642.163 151.552C643.252 151.936 644.253 152.249 645.167 152.489L650.164 153.834C651.446 154.171 652.872 154.635 654.441 155.228C656.027 155.821 657.541 156.63 658.983 157.655C660.441 158.664 661.642 159.962 662.587 161.548C663.532 163.133 664.005 165.08 664.005 167.386C664.005 170.046 663.308 172.448 661.914 174.595C660.537 176.741 658.518 178.447 655.859 179.713C653.216 180.978 650.004 181.611 646.224 181.611C642.7 181.611 639.648 181.043 637.069 179.905C634.506 178.768 632.488 177.182 631.014 175.148C629.556 173.113 628.731 170.75 628.539 168.059H634.69C634.85 169.917 635.475 171.455 636.564 172.673C637.67 173.874 639.063 174.771 640.745 175.364C642.443 175.941 644.269 176.229 646.224 176.229C648.498 176.229 650.541 175.86 652.351 175.124C654.161 174.371 655.595 173.329 656.652 172C657.709 170.654 658.238 169.084 658.238 167.29C658.238 165.656 657.781 164.327 656.868 163.302C655.955 162.276 654.754 161.443 653.264 160.803C651.774 160.162 650.164 159.601 648.434 159.121L642.379 157.391C638.535 156.285 635.491 154.707 633.248 152.657C631.006 150.607 629.885 147.923 629.885 144.608C629.885 141.852 630.629 139.449 632.119 137.399C633.625 135.333 635.643 133.731 638.174 132.593C640.721 131.44 643.565 130.863 646.704 130.863C649.876 130.863 652.695 131.432 655.162 132.569C657.629 133.691 659.584 135.228 661.025 137.183C662.483 139.137 663.252 141.356 663.332 143.839H657.565Z" fill="#111120"/>
<path d="M585.924 180.746V131.536H615.623V136.822H591.883V153.45H614.085V158.736H591.883V175.46H616.007V180.746H585.924Z" fill="#111120"/>
<path d="M548.186 180.746H533V131.536H548.859C553.632 131.536 557.717 132.521 561.113 134.492C564.509 136.446 567.112 139.257 568.922 142.926C570.732 146.578 571.638 150.951 571.638 156.045C571.638 161.171 570.724 165.584 568.898 169.285C567.072 172.969 564.413 175.804 560.921 177.791C557.429 179.761 553.184 180.746 548.186 180.746ZM538.959 175.46H547.801C551.87 175.46 555.242 174.675 557.917 173.105C560.593 171.535 562.587 169.301 563.9 166.401C565.214 163.502 565.871 160.05 565.871 156.045C565.871 152.072 565.222 148.652 563.924 145.785C562.627 142.902 560.689 140.691 558.11 139.153C555.531 137.599 552.319 136.822 548.474 136.822H538.959V175.46Z" fill="#111120"/>
</g>
<defs>
<clipPath id="clip0_36_944">
<rect width="802" height="200" fill="white"/>
</clipPath>
</defs>
</svg>
